<svg xmlns="http://www.w3.org/2000/svg" viewBox="0 0 900 700" preserveAspectRatio="xMidYMid meet" font-family="'Iowan Old Style','Hoefler Text',Georgia,serif">
  <defs>
    
  <filter id="handdrawn" x="-2%" y="-2%" width="104%" height="104%">
    <feTurbulence type="fractalNoise" baseFrequency="0.02" numOctaves="2" seed="3"/>
    <feDisplacementMap in="SourceGraphic" scale="1.2"/>
  </filter>
  <filter id="parchment-texture" x="0%" y="0%" width="100%" height="100%">
    <feTurbulence type="fractalNoise" baseFrequency="0.85" numOctaves="2" seed="7" stitchTiles="stitch"/>
    <feColorMatrix values="0 0 0 0 0.92  0 0 0 0 0.85  0 0 0 0 0.7  0 0 0 0.05 0"/>
    <feComposite in2="SourceGraphic" operator="in"/>
  </filter>
  <filter id="soft-shadow" x="-5%" y="-5%" width="110%" height="110%">
    <feGaussianBlur in="SourceAlpha" stdDeviation="1.2"/>
    <feOffset dx="1" dy="1.5"/>
    <feComponentTransfer><feFuncA type="linear" slope="0.35"/></feComponentTransfer>
    <feMerge><feMergeNode/><feMergeNode in="SourceGraphic"/></feMerge>
  </filter>

    <radialGradient id="parchment-gradient" cx="50%" cy="45%" r="75%">
      <stop offset="0%"  stop-color="#fbf5e0"/>
      <stop offset="65%" stop-color="#f4ead0"/>
      <stop offset="100%" stop-color="#e8dcb6"/>
    </radialGradient>
    <linearGradient id="ocean-gradient" x1="0" y1="0" x2="0" y2="1">
      <stop offset="0%" stop-color="#cfd9d6" stop-opacity="0.5"/>
      <stop offset="100%" stop-color="#cfd9d6" stop-opacity="0.85"/>
    </linearGradient>
    <radialGradient id="focal-glow" cx="50%" cy="50%" r="55%">
      <stop offset="0%" stop-color="#c46b30" stop-opacity="0.25"/>
      <stop offset="100%" stop-color="#c46b30" stop-opacity="0"/>
    </radialGradient>
  </defs>

  <!-- 羊皮纸背景 -->
  <rect width="900" height="700" fill="url(#parchment-gradient)"/>
  <rect width="900" height="700" fill="#f4ead0" filter="url(#parchment-texture)"/>

  <!-- 内框 -->
  <rect x="14" y="14" width="872" height="672" fill="none" stroke="#3d2c1a" stroke-width="1.2" opacity="0.85"/>
  <rect x="20" y="20" width="860" height="660" fill="none" stroke="#3d2c1a" stroke-width="0.4" opacity="0.5"/>

  <!-- 海洋背景 -->
  <rect x="28" y="28" width="844" height="644" fill="url(#ocean-gradient)" opacity="0.5"/>

  <!-- 焦点 spotlight — 英国/Runnymede 周围一圈光晕 -->
  <ellipse cx="221.22608137293764" cy="369.89311741532754" rx="100" ry="80" fill="url(#focal-glow)" opacity="0.95"/>

  <!-- 陆地（按 1200 AD 政治区着色，焦点区域更高饱和） -->
  <g class="political-1200" filter="url(#soft-shadow)">
    <path d="M467.963,-848.281L473.901,-878.746L496.973,-881.818L516.765,-850.658L568.507,-787.456L528.979,-755.673L520.214,-699.128L506.473,-685.239L499.008,-626.31L480.064,-623.634L446.248,-666.553L460.498,-692.47L436.974,-713.998L406.381,-780.267L394.166,-846.355L436.974,-878.286L445.569,-847.096ZM718.646,-226.434L691.898,-208.56L679.231,-204.534L685.847,-235.843L665.716,-254.081L641.343,-238.538L633.596,-205.725L618.61,-186.4L601.758,-196.9L581.288,-194.761L563.814,-218.021L554.37,-206.321L544.644,-204.534L542.325,-176.014L512.75,-182.902L508.565,-159.255L493.467,-159.397L483.118,-129.949L467.397,-85.83L443.025,-32.56L448.736,-20.032L443.251,-5.713L427.7,-6.321L417.521,26.804L418.482,71.9L428.491,88.642L423.289,126.356L410.226,147.748L403.327,165.425L392.752,146.597L361.763,181.799L340.784,188.76L319.069,173.516L313.47,140.613L308.494,66.259L322.971,44.472L364.421,15.388L395.467,-21.512L424.194,-73.72L461.969,-150.912L488.264,-182.683L531.411,-238.152L565.906,-258.321L591.749,-255.884L615.669,-295.063L644.283,-292.939L672.501,-302.617L721.643,-267.573L701.398,-255.1ZM660.626,-882.433L637.328,-834.736L591.749,-824.562L545.435,-838.837L542.608,-863.085L520.101,-864.745L502.91,-906.617L551.43,-933.084L574.219,-910.26L590.109,-938.798L629.807,-914.875ZM618.44,-701.147L583.38,-671.189L555.671,-688.1L566.472,-707.232L557.028,-731.591L589.544,-747.266L595.764,-718.236Z" fill="#c08560" fill-opacity="0.5" stroke="#3d2c1a" stroke-width="0.65" stroke-linejoin="round"/>
    <path d="M-581.365,1250.014L-590.639,1264.4L-595.445,1276.007L-601.496,1281.967L-609.017,1283.085L-611.166,1278.668L-614.672,1278.003L-619.535,1282.26L-626.378,1279.014L-622.363,1272.414L-621.006,1265.226L-618.235,1258.461L-624.399,1249.107L-625.643,1238.332L-617.5,1224.767L-612.127,1226.504L-600.591,1230.244L-583.966,1243.561ZM327.268,418.764L334.676,425.087L357.296,429.514L349.379,445.781L347.4,462.501L343.046,466.479L335.92,464.354L336.429,470.247L324.95,483.191L324.667,493.504L332.188,489.96L337.56,499.911L336.938,506.285L341.575,514.709L336.09,521.498L340.162,538.575L348.701,541.356L346.891,550.803L332.641,563.027L301.652,557.186L278.806,564.192L276.996,577.051L258.787,579.823L241.087,570.184L235.376,574.778L206.479,565.066L200.202,556.673L208.345,543.65L211.342,499.375L195.113,475.41L183.52,463.684L159.543,454.706L157.96,437.474L178.318,432.268L204.67,438.4L199.693,411.171L214.566,421.583L251.097,402.618L255.847,382.371L269.588,377.339L271.85,386.079L279.145,386.499L286.44,396.422L297.41,407.997L305.497,406.096L319.238,417.167L322.744,419.295ZM367.475,573.766L377.597,565.575L380.255,583.882L375.052,600.136L367.927,595.878L364.308,581.656Z" fill="#5b8db8" fill-opacity="0.5" stroke="#3d2c1a" stroke-width="0.65" stroke-linejoin="round"/>
    <path d="M403.327,165.425L410.226,147.748L423.289,126.356L428.491,88.642L418.482,71.9L417.521,26.804L427.7,-6.321L443.251,-5.713L448.736,-20.032L443.025,-32.56L467.397,-85.83L483.118,-129.949L493.467,-159.397L508.565,-159.255L512.75,-182.902L542.325,-176.014L544.644,-204.534L554.37,-206.321L575.35,-185.014L599.836,-156.135L600.288,-93.766L605.547,-78.612L578.517,-67.753L563.305,-41.399L565.736,-18.923L540.798,9.9L510.431,39.895L499.008,87.091L510.205,109.897L525.191,127.53L510.771,162.439L494.428,169.53L488.434,219.145L479.555,245.884L460.498,243.164L451.564,265.303L433.411,266.567L428.378,240.148L415.259,207.5Z" fill="#c08560" fill-opacity="0.5" stroke="#3d2c1a" stroke-width="0.65" stroke-linejoin="round"/>
    <path d="M672.671,244.024L689.24,251.116L691.445,258.021L699.702,254.715L715.083,261.363L716.61,274.305L713.217,281.665L723.056,299.377L729.447,304.27L728.542,309.096L739.116,313.767L743.64,320.782L737.533,326.513L724.866,325.627L721.812,328.063L725.545,336.704L729.39,353.227L715.875,354.741L711.068,360.303L710.05,373.05L703.773,370.623L689.636,371.816L685.508,365.924L679.627,370.325L673.689,366.652L661.361,366.138L643.831,360.088L627.941,358.064L615.783,358.667L607.187,365.539L599.666,366.523L599.327,355.216L594.52,343.316L603.907,338.02L604.02,327.665L599.666,317.66L598.987,305.941L614.143,306.122L631.221,296.012L634.84,280.742L647.733,271.933L646.263,259.575L655.819,254.857Z" fill="#b87a8e" fill-opacity="0.5" stroke="#3d2c1a" stroke-width="0.65" stroke-linejoin="round"/>
    <path d="M729.39,353.227L735.271,354.222L739.23,348.413L743.98,349.716L760.266,347.238L770.332,361.679L766.373,366.823L767.674,374.623L780.228,375.855L785.826,386.668L785.487,391.534L805.392,400.21L817.437,396.297L827.164,407.791L836.325,407.543L859.51,415.445L859.679,422.521L853.289,435.095L856.795,448.178L854.307,456.015L839.095,457.719L831.009,464.236L830.5,474.512L817.946,476.385L807.484,483.812L792.782,485.013L779.266,493.504L780.058,505.638L777.683,504.952L775.647,500.485L770.614,499.605L759.418,494.734L755.29,500.332L753.141,497.881L728.711,492.157L727.637,483.618L713.104,486.445L707.279,498.954L695.121,515.578L687.996,511.756L680.588,515.352L673.576,511.225L677.534,508.795L680.305,501.058L684.603,493.85L683.472,489.767L686.752,487.953L688.279,491.078L697.553,491.772L701.737,490.076L698.797,487.759L699.871,484.354L694.386,478.528L692.124,468.875L686.413,465.062L687.544,457.165L680.475,450.849L673.972,449.973L662.436,442.617L651.974,444.941L648.242,448.417L641.569,448.417L637.667,453.951L626.075,456.174L620.702,459.777L613.407,454.071L603.342,453.951L593.615,451.367L586.829,456.412L585.755,450.092L576.99,443.659L580.1,434.086L584.454,427.851L587.847,429.271L583.832,418.436L598.083,398.172L605.886,395.296L607.526,388.348L599.666,366.523L607.187,365.539L615.783,358.667L627.941,358.064L643.831,360.088L661.361,366.138L673.689,366.652L679.627,370.325L685.508,365.924L689.636,371.816L703.773,370.623L710.05,373.05L711.068,360.303L715.875,354.741Z" fill="#b87a8e" fill-opacity="0.5" stroke="#3d2c1a" stroke-width="0.65" stroke-linejoin="round"/>
    <path d="M598.987,305.941L599.666,317.66L604.02,327.665L603.907,338.02L594.52,343.316L599.327,355.216L599.666,366.523L607.526,388.348L605.886,395.296L598.083,398.172L583.832,418.436L587.847,429.271L584.454,427.851L569.525,418.6L558.215,422.032L550.807,419.541L541.477,424.721L533.56,416.143L527.113,419.459L526.209,417.986L519.027,406.014L507.321,404.524L505.851,396.839L495.05,394.085L492.731,400.46L484.192,395.38L485.154,388.558L473.448,386.415L465.984,378.356L459.537,362.28L460.781,353.487L456.879,339.73L451.168,330.495L455.522,323.496L451.903,310.086L462.591,302.234L487.133,289.801L506.925,280.603L522.589,285.212L523.777,291.814L538.932,292.134L558.272,295.192L587.169,294.782L595.199,297.696Z" fill="#b87a8e" fill-opacity="0.5" stroke="#3d2c1a" stroke-width="0.65" stroke-linejoin="round"/>
    <path d="M496.803,450.73L495.615,460.29L486.794,460.369L489.791,465.417L484.588,480.279L481.591,484.161L467.85,484.703L459.933,489.883L446.983,488.146L424.477,482.221L420.97,474.238L405.476,478.217L403.666,482.609L394.11,479.346L386.08,478.723L379.011,474.512L381.386,468.835L380.82,464.748L385.514,463.448L393.488,469.894L395.693,463.763L409.548,464.748L420.801,460.567L428.322,461.278L433.242,466.046L434.712,462.107L432.45,446.82L438.105,443.82L443.647,432.874L455.296,440.53L464.174,430.77L469.716,428.987L481.874,436.265L489.282,435.055L496.52,439.526L495.22,442.537Z" fill="#a07cb8" fill-opacity="0.5" stroke="#3d2c1a" stroke-width="0.65" stroke-linejoin="round"/>
    <path d="M576.99,443.659L585.755,450.092L586.829,456.412L577.216,461.278L569.808,477.009L560.308,492.542L547.697,496.807L537.914,495.809L525.869,501.746L519.988,505.142L507.038,500.791L495.276,491.078L490.3,488.262L487.246,480.512L484.588,480.279L489.791,465.417L486.794,460.369L495.615,460.29L496.803,450.73L504.776,456.729L510.601,459.302L523.777,456.412L525.021,451.725L531.298,451.008L538.932,447.339L540.629,448.856L547.98,445.901L551.712,440.329L556.858,438.882L573.653,446.101Z" fill="#c69954" fill-opacity="0.5" stroke="#3d2c1a" stroke-width="0.65" stroke-linejoin="round"/>
    <path d="M648.242,448.417L651.974,444.941L662.436,442.617L673.972,449.973L680.475,450.849L687.544,457.165L686.413,465.062L692.124,468.875L694.386,478.528L699.871,484.354L698.797,487.759L701.737,490.076L697.553,491.772L688.279,491.078L686.752,487.953L683.472,489.767L684.603,493.85L680.305,501.058L677.534,508.795L673.576,511.225L670.748,500.943L672.445,491.271L671.936,481.251L662.888,467.5L657.855,457.68L652.992,450.73Z" fill="#d4af75" fill-opacity="0.4" stroke="#3d2c1a" stroke-width="0.55" stroke-linejoin="round"/>
    <path d="M673.576,511.225L680.588,515.352L687.996,511.756L695.121,515.578L695.46,521.31L687.826,526.117L683.076,524.016L678.665,550.509L669.448,548.227L658.025,540.281L639.533,545.387L631.729,550.913L608.657,549.773L596.612,546.383L590.505,547.969L585.981,538.983L583.097,535.155L586.773,531.465L582.871,528.7L577.951,533.666L568.79,527.241L567.546,518.07L557.989,512.817L556.236,505.676L547.697,496.807L560.308,492.542L569.808,477.009L577.216,461.278L586.829,456.412L593.615,451.367L603.342,453.951L613.407,454.071L620.702,459.777L626.075,456.174L637.667,453.951L641.569,448.417L648.242,448.417L652.992,450.73L657.855,457.68L662.888,467.5L671.936,481.251L672.445,491.271L670.748,500.943Z" fill="#c69954" fill-opacity="0.5" stroke="#3d2c1a" stroke-width="0.65" stroke-linejoin="round"/>
    <path d="M646.263,259.575L647.733,271.933L634.84,280.742L631.221,296.012L614.143,306.122L598.987,305.941L595.199,297.696L587.169,294.782L585.868,287.922L587.564,280.465L580.609,276.114L564.153,271.328L560.817,247.932L578.799,239.285L605.151,241.107L620.589,238.278L622.795,244.167L631.164,245.98Z" fill="#b87a8e" fill-opacity="0.5" stroke="#3d2c1a" stroke-width="0.65" stroke-linejoin="round"/>
    <path d="M658.703,206.561L666.281,213.265L667.638,227.276L672.671,244.024L655.819,254.857L646.263,259.575L631.164,245.98L622.795,244.167L620.589,238.278L605.151,241.107L578.799,239.285L560.817,247.932L561.382,226.548L569.073,208.389L583.889,198.371L596.386,220.171L608.997,219.585L611.994,197.224L625.396,191.973L632.238,195.627L645.754,206.512Z" fill="#b87a8e" fill-opacity="0.5" stroke="#3d2c1a" stroke-width="0.65" stroke-linejoin="round"/>
    <path d="M669.617,146.44L671.992,151.818L660.796,169.427L665.489,197.274L658.703,206.561L645.754,206.512L632.238,195.627L625.396,191.973L611.994,197.224L613.803,179.671L608.035,183.467L598.083,172.802L596.725,155.301L616.574,146.754L636.366,142.244L653.388,147.329Z" fill="#b87a8e" fill-opacity="0.5" stroke="#3d2c1a" stroke-width="0.65" stroke-linejoin="round"/>
    <path d="M451.903,310.086L455.522,323.496L451.168,330.495L456.879,339.73L460.781,353.487L459.537,362.28L465.984,378.356L458.972,380.978L454.843,378.101L450.885,382.878L439.575,387.676L433.751,393.835L422.328,399.212L425.099,406.51L426.795,416.757L434.768,422.562L443.647,432.874L438.105,443.82L432.45,446.82L434.712,462.107L433.242,466.046L428.322,461.278L420.801,460.567L409.548,464.748L395.693,463.763L393.488,469.894L385.514,463.448L380.82,464.748L363.969,457.6L360.746,462.659L347.4,462.501L349.379,445.781L357.296,429.514L334.676,425.087L327.268,418.764L328.173,408.121L325.006,402.618L326.816,385.911L324.158,359.572L333.602,359.572L337.56,349.976L341.462,326.247L338.578,317.347L341.632,311.749L354.751,310.311L357.692,316.14L368.323,303.049L364.761,292.957L364.025,277.551L375.901,281.157L385.966,276.995L386.193,287.509L402.083,293.824L401.913,303.365L417.917,298.332L426.738,290.945L444.438,301.554Z" fill="#a07cb8" fill-opacity="0.5" stroke="#3d2c1a" stroke-width="0.65" stroke-linejoin="round"/>
    <path d="M585.981,538.983L590.505,547.969L596.612,546.383L608.657,549.773L631.729,550.913L639.533,545.387L658.025,540.281L669.448,548.227L678.665,550.509L670.522,559.489L664.811,574.814L669.844,586.927L656.328,584.097L640.325,590.75L640.155,601.199L625.905,603.18L614.821,595.878L602.267,601.624L590.618,601.022L589.487,587.105L581.627,580.327L584.228,577.303L582.532,574.778L585.189,567.972L591.127,561.241L583.493,551.906L582.136,543.946Z" fill="#5fa8a0" fill-opacity="0.5" stroke="#3d2c1a" stroke-width="0.65" stroke-linejoin="round"/>
    <path d="M643.039,722.023L641.06,727.713L618.44,729.335L618.61,726.154L599.44,722.414L602.38,714.217L610.976,720.719L623.191,719.61L634.896,720.98L634.5,724.334ZM590.618,601.022L602.267,601.624L614.821,595.878L625.905,603.18L640.155,601.199L640.325,590.75L647.959,596.34L643.096,609.388L639.364,611.744L629.807,611.147L621.607,609.177L602.607,614.587L613.464,626.179L605.491,629.513L596.782,629.547L588.469,618.928L585.529,623.464L589.035,635.708L596.895,645.242L590.957,649.66L599.723,658.966L607.47,664.764L607.696,676.023L593.163,670.742L597.8,680.885L587.847,682.958L593.785,700.272L583.38,700.536L570.487,692.022L564.606,676.225L561.835,662.969L555.727,653.724L547.641,642.186L546.623,636.399L553.918,626.457L554.822,619.766L559.968,616.794L560.251,611.358L570.543,609.494L576.537,604.947L585.02,605.37L587.621,601.73Z" fill="#5fa8a0" fill-opacity="0.5" stroke="#3d2c1a" stroke-width="0.65" stroke-linejoin="round"/>
    <path d="M933.363,685.597L925.842,688.929L920.357,683.927L902.035,681.353L895.305,684.428L877.436,687.497L869.01,687.164L850.914,694.545L837.964,694.611L829.652,690.892L812.348,696.368L807.202,692.554L806.353,703.441L802.112,707.721L797.928,711.957L792.16,703.144L798.097,695.805L788.54,697.494L775.364,692.985L764.564,704.232L740.756,706.405L728.033,695.937L711.068,695.275L707.449,703.375L696.591,705.681L681.436,695.308L664.302,695.672L654.971,676.057L643.492,665.001L651.126,649.387L641.173,639.674L658.59,620.081L682.793,619.277L689.41,603.498L719.324,606.252L738.212,592.675L756.534,586.712L782.49,586.247L809.916,601.093L832.479,609.142L850.745,605.935L864.26,607.804L882.808,596.873L899.547,595.878L914.702,606.147L917.36,613.465L915.833,623.534L927.538,628.645L933.702,634.603L922.958,640.397L927.878,663.545L924.768,669.73ZM640.325,590.75L656.328,584.097L669.844,586.927L671.71,595.06L685.451,601.801L682.567,606.922L663.906,608.085L657.233,614.482L644.114,625.622L639.194,615.989L639.364,611.744L643.096,609.388L647.959,596.34Z" fill="#5fa8a0" fill-opacity="0.5" stroke="#3d2c1a" stroke-width="0.65" stroke-linejoin="round"/>
    <path d="M560.251,611.358L559.968,616.794L554.822,619.766L553.918,626.457L546.623,636.399L543.908,634.983L543.626,630.484L534.917,623.569L533.56,613.745L534.861,599.534L537.009,592.996L534.352,589.679L533.334,582.949L540.12,572.465L541.138,576.474L545.379,574.597L548.715,580.327L552.447,582.482L553.522,590.143L551.543,597.299L553.748,606.288Z" fill="#d4af75" fill-opacity="0.4" stroke="#3d2c1a" stroke-width="0.55" stroke-linejoin="round"/>
    <path d="M490.3,488.262L495.276,491.078L507.038,500.791L519.988,505.142L525.869,501.746L529.658,510.466L534.691,516.863L528.64,525.217L521.515,520.294L510.658,520.595L497.142,516.9L489.791,517.391L486.398,522.025L480.8,516.9L477.463,526.117L485.154,536.457L488.603,543.243L495.785,551.391L501.779,556.161L507.717,565.175L521.628,573.297L519.875,576.906L505.116,569.024L496.011,561.277L481.648,554.842L468.472,538.834L471.639,537.163L464.457,527.915L464.174,520.407L454.052,516.9L449.245,526.491L444.608,519.051L444.947,511.301L445.513,510.959L456.483,511.718L459.367,507.921L464.683,511.604L470.847,512.021L470.79,505.752L476.276,503.464L477.802,494.311Z" fill="#c69954" fill-opacity="0.5" stroke="#3d2c1a" stroke-width="0.65" stroke-linejoin="round"/>
    <path d="M380.82,464.748L381.386,468.835L379.011,474.512L386.08,478.723L394.11,479.346L392.865,488.725L385.966,492.58L374.317,489.69L370.924,498.877L363.46,499.605L360.746,496.001L351.924,503.655L344.346,504.723L337.56,499.911L332.188,489.96L324.667,493.504L324.95,483.191L336.429,470.247L335.92,464.354L343.046,466.479L347.4,462.501L360.746,462.659L363.969,457.6Z" fill="#a07cb8" fill-opacity="0.5" stroke="#3d2c1a" stroke-width="0.65" stroke-linejoin="round"/>
    <path d="M325.006,402.618L328.173,408.121L327.268,418.764L322.744,419.295L319.238,417.167L320.935,403.53Z" fill="#5b8db8" fill-opacity="0.5" stroke="#3d2c1a" stroke-width="0.65" stroke-linejoin="round"/>
    <path d="M326.816,385.911L325.006,402.618L320.935,403.53L319.238,417.167L305.497,406.096L297.41,407.997L286.44,396.422L279.145,386.499L271.85,386.079L269.588,377.339L282.142,372.37L293.678,374.368L308.211,369.13L318.164,380.09Z" fill="#5b8db8" fill-opacity="0.5" stroke="#3d2c1a" stroke-width="0.65" stroke-linejoin="round"/>
    <path d="M338.578,317.347L341.462,326.247L337.56,349.976L333.602,359.572L324.158,359.572L326.816,385.911L318.164,380.09L308.211,369.13L293.678,374.368L282.142,372.37L290.229,365.453L304.027,327.621L325.515,316.588Z" fill="#a07cb8" fill-opacity="0.5" stroke="#3d2c1a" stroke-width="0.65" stroke-linejoin="round"/>
    <path d="M88.178,589.607L93.89,584.24L100.28,581.153L104.238,591.499L113.512,591.499L116.17,588.822L125.331,589.572L129.742,600.101L122.447,605.758L122.277,621.93L119.733,624.927L119.111,634.637L112.325,636.295L118.602,648.497L114.247,661.715L119.676,667.638L117.527,673.065L111.703,680.516L113.003,687.031L106.67,692.122L98.414,689.362L90.327,691.524L92.702,676.091L91.232,663.85L84.22,661.986L80.431,654.372L81.675,641.154L87.952,633.738L89.083,625.449L92.363,613.044L92.024,604.24L88.857,596.73Z" fill="#d6b94a" fill-opacity="0.5" stroke="#3d2c1a" stroke-width="0.65" stroke-linejoin="round"/>
    <path d="M113.003,687.031L111.703,680.516L117.527,673.065L119.676,667.638L114.247,661.715L118.602,648.497L112.325,636.295L119.111,634.637L119.733,624.927L122.277,621.93L122.447,605.758L129.742,600.101L125.331,589.572L116.17,588.822L113.512,591.499L104.238,591.499L100.28,581.153L93.89,584.24L88.178,589.607L88.97,574.525L82.523,565.211L104.747,549.626L123.974,553.521L145.067,553.411L161.805,557.112L174.812,555.978L200.202,556.673L206.479,565.066L235.376,574.778L241.087,570.184L258.787,579.823L276.996,577.051L277.844,589.393L262.972,603.357L242.84,607.768L241.427,614.762L231.757,626.179L225.706,642.804L231.813,654.372L222.765,663.308L219.372,676.258L207.497,680.215L196.357,695.341L176.452,695.639L161.466,695.275L151.626,702.187L145.632,709.528L137.942,707.918L132.117,701.362L127.65,690.094Z" fill="#d6b94a" fill-opacity="0.5" stroke="#3d2c1a" stroke-width="0.65" stroke-linejoin="round"/>
    <path d="M132.739,307.114L135.34,325.981L123.465,349.151L95.586,364.211L73.362,360.389L86.086,333.537L77.886,306.753L99.262,285.671L111.137,272.91L114.361,287.555L111.137,302.007L120.864,301.6Z" fill="#d4612e" fill-opacity="0.78" stroke="#5a1a1a" stroke-width="1.1" stroke-linejoin="round"/>
    <path d="M394.11,479.346L403.666,482.609L405.476,478.217L420.97,474.238L424.477,482.221L446.983,488.146L445.23,499.337L449.019,508.909L436.521,505.638L423.741,513.612L424.59,524.654L422.667,530.943L427.813,542.133L442.572,553.118L450.489,570.909L467.963,588.035L480.234,587.928L484.079,592.568L479.669,596.766L493.749,604.346L505.285,610.619L518.744,621.407L520.384,625.275L517.443,632.597L508.735,623.011L495.05,619.627L488.49,632.908L499.8,640.466L497.934,651.062L491.374,652.257L483.005,669.427L476.445,670.978L476.502,664.866L479.725,654.099L483.118,649.797L477.011,638.054L472.204,627.743L465.701,625.17L461.064,616.269L450.942,612.517L444.156,604.134L432.506,602.791L420.235,593.316L405.872,579.571L395.184,567.283L390.321,545.867L382.517,543.354L369.737,536.122L362.499,539.094L353.394,549.221L346.891,550.803L348.701,541.356L340.162,538.575L336.09,521.498L341.575,514.709L336.938,506.285L337.56,499.911L344.346,504.723L351.924,503.655L360.746,496.001L363.46,499.605L370.924,498.877L374.317,489.69L385.966,492.58L392.865,488.725ZM461.969,666.286L473.901,664.561L468.246,680.215L470.564,686.331L467.284,696.401L455.239,689.029L447.266,686.897L425.381,676.863L427.53,666.624L445.909,668.448ZM366.909,610.162L374.77,603.71L384.157,618.438L381.951,645.516L374.826,644.212L368.436,650.959L362.499,645.619L361.877,620.954L358.257,609.107Z" fill="#79a373" fill-opacity="0.5" stroke="#3d2c1a" stroke-width="0.65" stroke-linejoin="round"/>
    <path d="M385.966,276.995L375.901,281.157L364.025,277.551L357.635,262.255L357.183,233.514L359.784,225.82L364.308,217.189L378.106,215.376L383.648,207.352L396.258,199.068L395.749,214.1L391.112,223.486L392.979,231.535L401.518,235.826L397.672,246.504L392.979,243.45L381.669,263.569ZM424.42,245.694L429.396,259.716L420.009,281.988L403.553,266.52L401.348,254.952Z" fill="#c08560" fill-opacity="0.5" stroke="#3d2c1a" stroke-width="0.65" stroke-linejoin="round"/>
    <path d="M132.739,307.114L120.864,301.6L111.137,302.007L114.361,287.555L111.137,272.91L124.313,271.794L141.165,288.655ZM181.484,319.401L181.541,319.401L183.803,303.999L173.285,287.417L173.059,287.05L154.002,282.264L150.269,274.862L155.981,262.537L150.778,254.857L142.352,267.969L141.391,241.059L133.474,226.548L139.186,196.476L151.4,172.24L163.954,174.638L182.898,172.138L166.103,204.284L182.106,200.263L199.297,200.412L195.226,224.07L181.089,249.549L197.318,251.353L198.562,254.29L212.587,286.774L223.331,291.128L233.001,321.495L237.468,331.819L256.525,336.792L254.603,353.27L246.573,360.733L252.85,373.773L238.712,386.878L217.733,386.626L190.985,393.459L183.633,388.6L173.285,400.127L158.752,397.339L147.725,406.717L139.355,401.83L162.371,375.77L176.452,370.367L176.338,370.325L151.796,366.138L147.329,356.037L163.785,348.108L155.189,334.154L158.13,316.99Z" fill="#d4612e" fill-opacity="0.78" stroke="#5a1a1a" stroke-width="1.1" stroke-linejoin="round"/>
    <path d="M2.167,-96.093L-1.452,-70.991L16.304,-45.185L-4.11,-17.078L-49.406,7.504L-62.978,13.899L-83.618,8.703L-127.444,-2.559L-112.006,-18.492L-146.218,-36.437L-118.396,-43.606L-119.075,-54.648L-152.043,-63.429L-141.412,-88.535L-117.604,-94.297L-93.119,-68.076L-69.255,-89.063L-49.519,-78.089L-23.902,-98.892Z" fill="#c08560" fill-opacity="0.5" stroke="#3d2c1a" stroke-width="0.65" stroke-linejoin="round"/>
    <path d="M446.983,488.146L459.933,489.883L467.85,484.703L481.591,484.161L484.588,480.279L487.246,480.512L490.3,488.262L477.802,494.311L476.276,503.464L470.79,505.752L470.847,512.021L464.683,511.604L459.367,507.921L456.483,511.718L445.513,510.959L449.019,508.909L445.23,499.337Z" fill="#a07cb8" fill-opacity="0.5" stroke="#3d2c1a" stroke-width="0.65" stroke-linejoin="round"/>
    <path d="M679.231,-204.534L676.912,-174.21L700.946,-146.207L686.469,-115.519L704.735,-70.862L694.16,-38.57L708.297,-11.319L701.907,11.931L725.149,35.822L719.211,53.22L704.621,72.575L671.031,114.171L642.53,116.706L614.878,128.276L589.318,134.913L580.213,117.675L565.001,107.237L568.507,75.102L560.873,44.761L568.394,24.626L582.645,2.515L618.553,-36.813L629.015,-44.616L627.432,-60.536L605.547,-78.612L600.288,-93.766L599.836,-156.135L575.35,-185.014L554.37,-206.321L563.814,-218.021L581.288,-194.761L601.758,-196.9L618.61,-186.4L633.596,-205.725L641.343,-238.538L665.716,-254.081L685.847,-235.843Z" fill="#d4af75" fill-opacity="0.4" stroke="#3d2c1a" stroke-width="0.55" stroke-linejoin="round"/>
    <path d="M584.454,427.851L580.1,434.086L576.99,443.659L573.653,446.101L556.858,438.882L551.712,440.329L547.98,445.901L540.629,448.856L538.932,447.339L531.298,451.008L525.021,451.725L523.777,456.412L510.601,459.302L504.776,456.729L496.803,450.73L495.22,442.537L496.52,439.526L498.726,434.288L505.681,434.692L511.053,432.227L511.449,430.001L514.503,428.865L515.521,423.418L519.14,422.358L521.572,418.027L526.209,417.986L527.113,419.459L533.56,416.143L541.477,424.721L550.807,419.541L558.215,422.032L569.525,418.6Z" fill="#c69954" fill-opacity="0.5" stroke="#3d2c1a" stroke-width="0.65" stroke-linejoin="round"/>
    <path d="M465.984,378.356L473.448,386.415L485.154,388.558L484.192,395.38L492.731,400.46L495.05,394.085L505.851,396.839L507.321,404.524L519.027,406.014L526.209,417.986L521.572,418.027L519.14,422.358L515.521,423.418L514.503,428.865L511.449,430.001L511.053,432.227L505.681,434.692L498.726,434.288L496.52,439.526L489.282,435.055L481.874,436.265L469.716,428.987L464.174,430.77L455.296,440.53L443.647,432.874L434.768,422.562L426.795,416.757L425.099,406.51L422.328,399.212L433.751,393.835L439.575,387.676L450.885,382.878L454.843,378.101L458.972,380.978Z" fill="#a07cb8" fill-opacity="0.5" stroke="#3d2c1a" stroke-width="0.65" stroke-linejoin="round"/>
    <path d="M744.262,725.114L745.337,725.017L747.599,720.36L758.909,720.621L773.216,714.872L762.584,723.065L763.772,726.674L762.075,725.992L759.078,727.454L756.703,727.064L755.912,727.778L755.629,725.862L754.498,724.659L751.444,724.464L747.203,726.122Z" fill="#d4af75" fill-opacity="0.4" stroke="#3d2c1a" stroke-width="0.55" stroke-linejoin="round"/>
    <path d="M521.628,573.297L507.717,565.175L501.779,556.161L495.785,551.391L488.603,543.243L485.154,536.457L477.463,526.117L480.8,516.9L486.398,522.025L489.791,517.391L497.142,516.9L510.658,520.595L521.515,520.294L528.64,525.217L534.295,525.142L530.393,534.857L537.971,543.28L535.652,553.521L531.977,554.512L529.036,556.454L523.947,561.496Z" fill="#c69954" fill-opacity="0.5" stroke="#3d2c1a" stroke-width="0.65" stroke-linejoin="round"/>
    <path d="M581.627,580.327L589.487,587.105L590.618,601.022L587.621,601.73L585.02,605.37L576.537,604.947L570.543,609.494L560.251,611.358L553.748,606.288L551.543,597.299L553.522,590.143L555.501,590.321L556.236,585.996L565.51,582.734L569.016,581.908L574.389,580.65Z" fill="#5fa8a0" fill-opacity="0.5" stroke="#3d2c1a" stroke-width="0.65" stroke-linejoin="round"/>
    <path d="M525.869,501.746L537.914,495.809L547.697,496.807L556.236,505.676L557.989,512.817L567.546,518.07L568.79,527.241L577.951,533.666L582.871,528.7L586.773,531.465L583.097,535.155L585.981,538.983L582.136,543.946L583.493,551.906L591.127,561.241L585.189,567.972L582.532,574.778L584.228,577.303L581.627,580.327L574.389,580.65L569.016,581.908L568.507,580.327L570.374,577.771L572.127,572.573L569.921,572.718L566.867,568.734L564.266,567.718L562.23,564.302L559.29,562.991L557.028,559.927L554.2,561.132L552.052,568.263L548.319,569.822L549.563,567.972L543.569,563.501L538.423,561.205L536.161,558.21L531.977,554.512L535.652,553.521L537.971,543.28L530.393,534.857L534.295,525.142L528.64,525.217L534.691,516.863L529.658,510.466Z" fill="#c69954" fill-opacity="0.5" stroke="#3d2c1a" stroke-width="0.65" stroke-linejoin="round"/>
    <path d="M545.379,574.597L541.138,576.474L540.12,572.465L533.334,582.949L534.352,589.679L531.072,588.035L526.661,581.153L519.875,576.906L521.628,573.297L523.947,561.496L529.036,556.454L531.977,554.512L536.161,558.21L538.423,561.205L543.569,563.501L549.563,567.972L548.319,569.822Z" fill="#d4af75" fill-opacity="0.4" stroke="#3d2c1a" stroke-width="0.55" stroke-linejoin="round"/>
    <path d="M553.522,590.143L552.447,582.482L548.715,580.327L545.379,574.597L548.319,569.822L552.052,568.263L554.2,561.132L557.028,559.927L559.29,562.991L562.23,564.302L564.266,567.718L566.867,568.734L569.921,572.718L572.127,572.573L570.374,577.771L568.507,580.327L569.016,581.908L565.51,582.734L556.236,585.996L555.501,590.321Z" fill="#d4af75" fill-opacity="0.4" stroke="#3d2c1a" stroke-width="0.55" stroke-linejoin="round"/>
  </g>

  <!-- 大区名标（直接显示在地图上，焦点 region 加重） -->
  <g class="region-labels">
    <text x="206.526569346791" y="310.87318566350723" text-anchor="middle" font-size="11" font-weight="800" letter-spacing="1.5" fill="#5a1a1a" opacity="0.95" pointer-events="none">KINGDOM</text><text x="206.526569346791" y="322.87318566350723" text-anchor="middle" font-size="11" font-weight="800" letter-spacing="1.5" fill="#5a1a1a" opacity="0.95" pointer-events="none">OF ENGLAND</text><text x="269.3584224185869" y="470.8816777003709" text-anchor="middle" font-size="11" font-weight="600" letter-spacing="1.5" fill="#2c1d10" opacity="0.75" pointer-events="none">KINGDOM</text><text x="269.3584224185869" y="482.8816777003709" text-anchor="middle" font-size="11" font-weight="600" letter-spacing="1.5" fill="#2c1d10" opacity="0.75" pointer-events="none">OF FRANCE</text><text x="402.87611019615304" y="399.73526116409323" text-anchor="middle" font-size="11" font-weight="600" letter-spacing="1.5" fill="#2c1d10" opacity="0.75" pointer-events="none">HOLY ROMAN</text><text x="402.87611019615304" y="411.73526116409323" text-anchor="middle" font-size="11" font-weight="600" letter-spacing="1.5" fill="#2c1d10" opacity="0.75" pointer-events="none">EMPIRE</text><text x="167.2566611769186" y="623.2314441188626" text-anchor="middle" font-size="10" font-weight="600" letter-spacing="1.5" fill="#2c1d10" opacity="0.75" pointer-events="none">IBERIAN</text><text x="167.2566611769186" y="634.2314441188626" text-anchor="middle" font-size="10" font-weight="600" letter-spacing="1.5" fill="#2c1d10" opacity="0.75" pointer-events="none">KINGDOMS</text><text x="426.4380550980766" y="560.7935343972517" text-anchor="middle" font-size="9" font-weight="600" letter-spacing="1.5" fill="#2c1d10" opacity="0.75" pointer-events="none">ITALIAN</text><text x="426.4380550980766" y="570.7935343972517" text-anchor="middle" font-size="9" font-weight="600" letter-spacing="1.5" fill="#2c1d10" opacity="0.75" pointer-events="none">CITY-STATES</text><text x="638.4955592153876" y="623.2314441188626" text-anchor="middle" font-size="10" font-weight="600" letter-spacing="1.5" fill="#2c1d10" opacity="0.75" pointer-events="none">BYZANTINE</text><text x="638.4955592153876" y="634.2314441188626" text-anchor="middle" font-size="10" font-weight="600" letter-spacing="1.5" fill="#2c1d10" opacity="0.75" pointer-events="none">EMPIRE</text><text x="481.41592653589794" y="65.26275899085886" text-anchor="middle" font-size="10" font-weight="600" letter-spacing="1.5" fill="#2c1d10" opacity="0.75" pointer-events="none">SCANDINAVIA</text><text x="654.2035224833365" y="324.4999999999999" text-anchor="middle" font-size="10" font-weight="600" letter-spacing="1.5" fill="#2c1d10" opacity="0.75" pointer-events="none">EASTERN</text><text x="654.2035224833365" y="335.4999999999999" text-anchor="middle" font-size="10" font-weight="600" letter-spacing="1.5" fill="#2c1d10" opacity="0.75" pointer-events="none">SLAVS</text><text x="544.2477796076938" y="476.8816777003709" text-anchor="middle" font-size="9" font-weight="600" letter-spacing="1.5" fill="#2c1d10" opacity="0.75" pointer-events="none">HUNGARY</text>
  </g>

  <!-- 城市标记 -->
  <g class="cities">
    
      <g>
        <circle cx="228.0841781357242" cy="368.3042729125974" r="3" fill="#fbf5e0" stroke="#3d2c1a" stroke-width="0.8"/>
        <circle cx="228.0841781357242" cy="368.3042729125974" r="1.35" fill="#3d2c1a"/>
        <text x="221.0841781357242" y="362.3042729125974" text-anchor="end" font-size="11" font-weight="600" fill="#2c1d10">London</text>
      </g>
      <g>
        <circle cx="267.036785447584" cy="433.35152941399554" r="3" fill="#fbf5e0" stroke="#3d2c1a" stroke-width="0.8"/>
        <circle cx="267.036785447584" cy="433.35152941399554" r="1.35" fill="#3d2c1a"/>
        <text x="260.036785447584" y="428.35152941399554" text-anchor="end" font-size="11" font-weight="600" fill="#2c1d10">Paris</text>
      </g>
      <g>
        <circle cx="426.3815064303119" cy="589.1525890187731" r="3" fill="#fbf5e0" stroke="#3d2c1a" stroke-width="0.8"/>
        <circle cx="426.3815064303119" cy="589.1525890187731" r="1.35" fill="#3d2c1a"/>
        <text x="431.3815064303119" y="585.1525890187731" text-anchor="start" font-size="11" font-weight="600" fill="#2c1d10">Rome</text>
      </g>
      <g>
        <circle cx="685.2801570126468" cy="607.9027817763199" r="3" fill="#fbf5e0" stroke="#3d2c1a" stroke-width="0.8"/>
        <circle cx="685.2801570126468" cy="607.9027817763199" r="1.35" fill="#3d2c1a"/>
        <text x="678.2801570126468" y="602.9027817763199" text-anchor="end" font-size="11" font-weight="600" fill="#2c1d10">Constantinople</text>
      </g>
      <g>
        <circle cx="166.82783377970358" cy="631.5419499257305" r="2" fill="#fbf5e0" stroke="#3d2c1a" stroke-width="0.8"/>
        <circle cx="166.82783377970358" cy="631.5419499257305" r="0.9" fill="#3d2c1a"/>
        <text x="171.82783377970358" y="627.5419499257305" text-anchor="start" font-size="9" font-weight="500" fill="#2c1d10">Toledo</text>
      </g>
  </g>

  <!-- 装饰图标（城堡 / 教皇十字 / 拜占庭鹰 / 商船） -->
  <g class="decorations">
    
    
  <g transform="translate(228.0841781357242 354.3042729125974) scale(0.95)" opacity="0.9">
    <!-- 城堡主体 -->
    <rect x="-7" y="-2" width="14" height="9" fill="#fbf5e0" stroke="#5a1a1a" stroke-width="0.7"/>
    <!-- 雉堞 -->
    <path d="M -7 -2 L -7 -6 L -4 -6 L -4 -3 L -1.5 -3 L -1.5 -6 L 1.5 -6 L 1.5 -3 L 4 -3 L 4 -6 L 7 -6 L 7 -2 Z"
          fill="#fbf5e0" stroke="#5a1a1a" stroke-width="0.7"/>
    <!-- 中央旗杆塔 -->
    <rect x="-1.5" y="-9" width="3" height="3" fill="#fbf5e0" stroke="#5a1a1a" stroke-width="0.6"/>
    <path d="M 0 -10 L 4 -9 L 0 -8 Z" fill="#9b2c2c" stroke="#5a1a1a" stroke-width="0.4"/>
    <!-- 门 -->
    <path d="M -1.7 7 L -1.7 3 Q 0 1.5 1.7 3 L 1.7 7 Z" fill="#5a1a1a"/>
  </g>
    
  <g transform="translate(426.3815064303119 577.1525890187731) scale(0.95)" opacity="0.85">
    <line x1="0" y1="-9" x2="0" y2="6" stroke="#5a1a1a" stroke-width="1.4" stroke-linecap="round"/>
    <line x1="-3" y1="-7" x2="3" y2="-7" stroke="#5a1a1a" stroke-width="1.2" stroke-linecap="round"/>
    <line x1="-4.5" y1="-3.5" x2="4.5" y2="-3.5" stroke="#5a1a1a" stroke-width="1.4" stroke-linecap="round"/>
    <line x1="-3" y1="0.5" x2="3" y2="0.5" stroke="#5a1a1a" stroke-width="1.2" stroke-linecap="round"/>
  </g>
    
  <g transform="translate(685.2801570126468 594.9027817763199) scale(0.85)" opacity="0.85">
    <!-- 身体 -->
    <ellipse cx="0" cy="0" rx="3" ry="5" fill="#5a1a1a" opacity="0.85"/>
    <!-- 双头 -->
    <circle cx="-2.2" cy="-5.5" r="1.8" fill="#5a1a1a"/>
    <circle cx="2.2" cy="-5.5" r="1.8" fill="#5a1a1a"/>
    <!-- 翅膀 -->
    <path d="M 0 -2 Q -7 0 -8 5 Q -3 1 -1 3 Z" fill="#5a1a1a" opacity="0.85"/>
    <path d="M 0 -2 Q 7 0 8 5 Q 3 1 1 3 Z" fill="#5a1a1a" opacity="0.85"/>
    <!-- 喙 -->
    <path d="M -2.2 -4 L -3 -3 L -2 -3.5 Z" fill="#9b2c2c"/>
    <path d="M 2.2 -4 L 3 -3 L 2 -3.5 Z" fill="#9b2c2c"/>
  </g>
    
  <g transform="translate(465.7079632679489 708.5022011146773) scale(0.9)" opacity="0.7">
    <!-- 船身 -->
    <path d="M -8 2 Q 0 5 8 2 L 6 0 L -6 0 Z" fill="#5a1a1a"/>
    <!-- 桅杆 -->
    <line x1="0" y1="0" x2="0" y2="-9" stroke="#5a1a1a" stroke-width="0.7"/>
    <!-- 帆 -->
    <path d="M 0 -8 L 5 -2 L 0 -2 Z" fill="#e8dcb6" stroke="#5a1a1a" stroke-width="0.4"/>
    <path d="M 0 -8 L -5 -2 L 0 -2 Z" fill="#fbf5e0" stroke="#5a1a1a" stroke-width="0.4"/>
  </g>
    
  <g transform="translate(104.42480810512274 476.8816777003709) scale(0.85)" opacity="0.7">
    <!-- 船身 -->
    <path d="M -8 2 Q 0 5 8 2 L 6 0 L -6 0 Z" fill="#5a1a1a"/>
    <!-- 桅杆 -->
    <line x1="0" y1="0" x2="0" y2="-9" stroke="#5a1a1a" stroke-width="0.7"/>
    <!-- 帆 -->
    <path d="M 0 -8 L 5 -2 L 0 -2 Z" fill="#e8dcb6" stroke="#5a1a1a" stroke-width="0.4"/>
    <path d="M 0 -8 L -5 -2 L 0 -2 Z" fill="#fbf5e0" stroke="#5a1a1a" stroke-width="0.4"/>
  </g>
  
  </g>

  <!-- 英雄 pin: Runnymede 1215 -->
  
    <g class="hero-pin">
      <!-- 引线从 pin 拉到左侧说明卡 -->
      <path d="M 221.22608137293764 369.89311741532754 Q 161.22608137293764 394.89311741532754 196.22608137293764 414.89311741532754"
            fill="none" stroke="#5a1a1a" stroke-width="0.9" stroke-dasharray="3,2" opacity="0.85"/>
      <!-- pin marker（红色印章） -->
      <circle cx="221.22608137293764" cy="369.89311741532754" r="5" fill="#9b2c2c" stroke="#5a1a1a" stroke-width="1.1"/>
      <circle cx="221.22608137293764" cy="369.89311741532754" r="2.5" fill="#fbf5e0" stroke="#5a1a1a" stroke-width="0.7"/>
      <circle cx="221.22608137293764" cy="369.89311741532754" r="1" fill="#9b2c2c"/>
      <!-- 说明卡 — 左侧大西洋留白处 -->
      <rect x="15.226081372937642" y="385.89311741532754" width="180" height="44"
            fill="#fbf5e0" stroke="#5a1a1a" stroke-width="0.8" opacity="0.96" rx="2"/>
      <text x="21.226081372937642" y="400.89311741532754" font-size="12" font-weight="700"
            fill="#5a1a1a" font-style="italic">★ Runnymede, 1215</text>
      <text x="21.226081372937642" y="413.89311741532754" font-size="9" fill="#2c1d10">King John signs</text>
      <text x="21.226081372937642" y="423.89311741532754" font-size="9" fill="#2c1d10" font-weight="600">the Magna Carta</text>
    </g>

  <!-- 图例 -->
  
    <g transform="translate(50 500)" font-size="9" fill="#2c1d10">
      <rect width="180" height="180" fill="#fbf5e0" stroke="#3d2c1a" stroke-width="0.6" opacity="0.92"/>
      <text x="90" y="14" text-anchor="middle" font-size="10" font-weight="700" letter-spacing="1.5">c. 1200 AD</text>
      
      <g transform="translate(10 28)">
        <rect width="14" height="10" fill="#d4612e" fill-opacity="0.55" stroke="#3d2c1a" stroke-width="0.4"/>
        <text x="20" y="9">Kingdom of England</text>
      </g>
      <g transform="translate(10 44)">
        <rect width="14" height="10" fill="#5b8db8" fill-opacity="0.55" stroke="#3d2c1a" stroke-width="0.4"/>
        <text x="20" y="9">Kingdom of France</text>
      </g>
      <g transform="translate(10 60)">
        <rect width="14" height="10" fill="#a07cb8" fill-opacity="0.55" stroke="#3d2c1a" stroke-width="0.4"/>
        <text x="20" y="9">Holy Roman Empire</text>
      </g>
      <g transform="translate(10 76)">
        <rect width="14" height="10" fill="#d6b94a" fill-opacity="0.55" stroke="#3d2c1a" stroke-width="0.4"/>
        <text x="20" y="9">Iberian Kingdoms</text>
      </g>
      <g transform="translate(10 92)">
        <rect width="14" height="10" fill="#79a373" fill-opacity="0.55" stroke="#3d2c1a" stroke-width="0.4"/>
        <text x="20" y="9">Italian City-States</text>
      </g>
      <g transform="translate(10 108)">
        <rect width="14" height="10" fill="#5fa8a0" fill-opacity="0.55" stroke="#3d2c1a" stroke-width="0.4"/>
        <text x="20" y="9">Byzantine Empire</text>
      </g>
      <g transform="translate(10 124)">
        <rect width="14" height="10" fill="#c08560" fill-opacity="0.55" stroke="#3d2c1a" stroke-width="0.4"/>
        <text x="20" y="9">Scandinavia</text>
      </g>
      <g transform="translate(10 140)">
        <rect width="14" height="10" fill="#b87a8e" fill-opacity="0.55" stroke="#3d2c1a" stroke-width="0.4"/>
        <text x="20" y="9">Eastern Slavs</text>
      </g>
      <g transform="translate(10 156)">
        <rect width="14" height="10" fill="#c69954" fill-opacity="0.55" stroke="#3d2c1a" stroke-width="0.4"/>
        <text x="20" y="9">Hungary</text>
      </g>
    </g>

  <!-- 罗经 -->
  
  <g transform="translate(75 105)" opacity="0.85">
    <circle r="30" fill="#fbf5e0" stroke="#3d2c1a" stroke-width="0.7"/>
    <circle r="19.5" fill="none" stroke="#3d2c1a" stroke-width="0.4" stroke-dasharray="2,2"/>
    <!-- Cardinal points -->
    <path d="M 0 -28.5 L 4 0 L 0 28.5 L -4 0 Z" fill="#3d2c1a" stroke="#3d2c1a" stroke-width="0.4"/>
    <path d="M -28.5 0 L 0 -3 L 28.5 0 L 0 3 Z" fill="#3d2c1a" opacity="0.35"/>
    <path d="M 0 -28.5 L 3 -2 L 0 0 L -3 -2 Z" fill="#f4ead0" stroke="#3d2c1a" stroke-width="0.3"/>
    <text y="-34" text-anchor="middle" font-family="serif" font-size="11.4" font-weight="600" fill="#3d2c1a">N</text>
  </g>

  <!-- 角花 -->
  
  <g transform="translate(40 40) scale(1 1)" opacity="0.55">
    <path d="M 0 0 Q 5 5 12 4 M 0 0 Q 5 5 4 12"
          fill="none" stroke="#3d2c1a" stroke-width="0.6" stroke-linecap="round"/>
    <circle cx="10" cy="10" r="1.5" fill="#3d2c1a" opacity="0.7"/>
    <circle cx="0" cy="0" r="2" fill="#e8dcb6" stroke="#3d2c1a" stroke-width="0.5"/>
  </g>
  
  <g transform="translate(860 40) scale(-1 1)" opacity="0.55">
    <path d="M 0 0 Q 5 5 12 4 M 0 0 Q 5 5 4 12"
          fill="none" stroke="#3d2c1a" stroke-width="0.6" stroke-linecap="round"/>
    <circle cx="10" cy="10" r="1.5" fill="#3d2c1a" opacity="0.7"/>
    <circle cx="0" cy="0" r="2" fill="#e8dcb6" stroke="#3d2c1a" stroke-width="0.5"/>
  </g>
  
  <g transform="translate(40 660) scale(1 -1)" opacity="0.55">
    <path d="M 0 0 Q 5 5 12 4 M 0 0 Q 5 5 4 12"
          fill="none" stroke="#3d2c1a" stroke-width="0.6" stroke-linecap="round"/>
    <circle cx="10" cy="10" r="1.5" fill="#3d2c1a" opacity="0.7"/>
    <circle cx="0" cy="0" r="2" fill="#e8dcb6" stroke="#3d2c1a" stroke-width="0.5"/>
  </g>
  
  <g transform="translate(860 660) scale(-1 -1)" opacity="0.55">
    <path d="M 0 0 Q 5 5 12 4 M 0 0 Q 5 5 4 12"
          fill="none" stroke="#3d2c1a" stroke-width="0.6" stroke-linecap="round"/>
    <circle cx="10" cy="10" r="1.5" fill="#3d2c1a" opacity="0.7"/>
    <circle cx="0" cy="0" r="2" fill="#e8dcb6" stroke="#3d2c1a" stroke-width="0.5"/>
  </g>

  <!-- 标题 + 副题 -->
  <text x="450" y="44" text-anchor="middle" font-size="20" font-weight="700" letter-spacing="3" fill="#2c1d10">EUROPE c. 1200</text>
  <text x="450" y="60" text-anchor="middle" font-size="10" font-style="italic" fill="#6b4f33" opacity="0.85">The age of King John, the Pope, and the bargain at Runnymede</text>

  <text x="450" y="678" text-anchor="middle" font-size="9" font-style="italic" fill="#6b4f33" opacity="0.7">Know U. Learning · Modern coastlines, c. 1200 political tints</text>
</svg>