<svg xmlns="http://www.w3.org/2000/svg" viewBox="0 0 900 700" preserveAspectRatio="xMidYMid meet" font-family="'Iowan Old Style','Hoefler Text','Songti SC','PingFang SC','Microsoft YaHei',Georgia,serif">
  <defs>
    
  <filter id="handdrawn" x="-2%" y="-2%" width="104%" height="104%">
    <feTurbulence type="fractalNoise" baseFrequency="0.02" numOctaves="2" seed="3"/>
    <feDisplacementMap in="SourceGraphic" scale="1.2"/>
  </filter>
  <filter id="parchment-texture" x="0%" y="0%" width="100%" height="100%">
    <feTurbulence type="fractalNoise" baseFrequency="0.85" numOctaves="2" seed="7" stitchTiles="stitch"/>
    <feColorMatrix values="0 0 0 0 0.92  0 0 0 0 0.85  0 0 0 0 0.7  0 0 0 0.05 0"/>
    <feComposite in2="SourceGraphic" operator="in"/>
  </filter>
  <filter id="soft-shadow" x="-5%" y="-5%" width="110%" height="110%">
    <feGaussianBlur in="SourceAlpha" stdDeviation="1.2"/>
    <feOffset dx="1" dy="1.5"/>
    <feComponentTransfer><feFuncA type="linear" slope="0.35"/></feComponentTransfer>
    <feMerge><feMergeNode/><feMergeNode in="SourceGraphic"/></feMerge>
  </filter>

    <radialGradient id="parchment-gradient-tang" cx="50%" cy="45%" r="75%">
      <stop offset="0%"  stop-color="#fbf5e0"/>
      <stop offset="65%" stop-color="#f4ead0"/>
      <stop offset="100%" stop-color="#e8dcb6"/>
    </radialGradient>
    <linearGradient id="ocean-gradient-tang" x1="0" y1="0" x2="0" y2="1">
      <stop offset="0%" stop-color="#cfd9d6" stop-opacity="0.5"/>
      <stop offset="100%" stop-color="#cfd9d6" stop-opacity="0.85"/>
    </linearGradient>
  </defs>

  <!-- 羊皮纸背景 -->
  <rect width="900" height="700" fill="url(#parchment-gradient-tang)"/>
  <rect width="900" height="700" fill="#f4ead0" filter="url(#parchment-texture)"/>

  <!-- 内框 -->
  <rect x="14" y="14" width="872" height="672" fill="none" stroke="#3d2c1a" stroke-width="1.2" opacity="0.85"/>
  <rect x="20" y="20" width="860" height="660" fill="none" stroke="#3d2c1a" stroke-width="0.4" opacity="0.5"/>

  <!-- 海洋背景 -->
  <rect x="28" y="28" width="844" height="644" fill="url(#ocean-gradient-tang)" opacity="0.4"/>

  <!-- 陆地（按国家） -->
  <g class="lands" filter="url(#soft-shadow)">
    <path d="M125.792,26.964L113.803,42.854L100.797,45.101L100.062,68.603L91.297,79.056L60.138,71.47L48.828,112.289L40.742,117.252L9.64,126.144L23.777,164.1L13.033,169.703L14.277,181.882L4.607,178.749L-3.31,171.082L-26.608,168.832L-52.677,168.25L-58.332,170.611L-80.726,161.582L-89.661,166.031L-92.092,178.677L-117.935,171.3L-128.284,174.342L-131.79,183.68L-140.781,187.59L-161.535,202.268L-168.377,217.14L-174.258,217.281L-178.556,207.432L-198.518,206.761L-201.741,189.559L-209.375,189.416L-208.188,168.032L-227.019,152.27L-253.936,153.962L-272.371,157.118L-287.357,137.432L-300.193,129.106L-324.566,113.162L-327.507,111.226L-367.939,124.415L-367.317,203.826L-375.347,204.852L-386.374,188.378L-397.006,182.422L-414.819,186.837L-421.774,193.88L-422.623,188.736L-418.777,179.902L-421.774,172.46L-439.983,165.121L-447.052,145.668L-455.76,140.109L-456.269,132.959L-441.001,135.048L-440.379,118.839L-427.033,115.209L-413.292,118.537L-410.464,96.591L-413.292,82.482L-429.013,83.57L-442.358,77.964L-460.511,88.067L-475.157,92.857L-483.187,89.151L-481.547,77.339L-491.556,61.821L-503.262,62.493L-516.551,46.543L-507.503,28.469L-512.083,23.581L-499.529,-3.211L-483.413,10.984L-481.434,-6.933L-449.031,-34.187L-424.489,-34.83L-389.881,-17.411L-371.276,-7.352L-354.594,-17.834L-329.712,-18.341L-309.581,-5.468L-305.057,-12.813L-282.946,-11.76L-279.044,-23.599L-304.491,-40.984L-289.393,-53.478L-292.333,-60.523L-277.291,-67.258L-288.601,-85.286L-281.419,-94.387L-222.664,-103.7L-214.974,-110.38L-175.672,-120.431L-161.535,-131.838L-133.317,-125.911L-128.34,-97.785L-111.941,-104.338L-91.81,-95.156L-93.11,-80.673L-78.012,-82.149L-38.653,-107.401L-44.421,-98.965L-24.346,-78.397L10.714,-13.402L19.084,-26.492L40.742,-12.097L63.305,-18.468L72.014,-13.992L79.535,0.292L90.505,5.07L97.235,15.431L117.479,12.18Z" fill="#e8c897" fill-opacity="0.4" stroke="#3d2c1a" stroke-width="0.55" stroke-linejoin="round"/>
    <path d="M-367.317,203.826L-367.939,124.415L-327.507,111.226L-324.566,113.162L-300.193,129.106L-287.357,137.432L-272.371,157.118L-253.936,153.962L-227.019,152.27L-208.188,168.032L-209.375,189.416L-201.741,189.559L-198.518,206.761L-178.556,207.432L-174.258,217.281L-168.377,217.14L-161.535,202.268L-140.781,187.59L-131.79,183.68L-127.096,185.762L-140.329,199.395L-128.736,207.291L-117.539,202.091L-98.935,213.068L-119.01,227.93L-130.998,225.911L-137.445,226.433L-139.707,220.711L-136.427,211.098L-157.407,215.913L-162.44,229.181L-169.904,240.464L-183.023,239.499L-187.095,248.473L-175.559,253.264L-172.166,268.218L-180.988,288.3L-192.863,284.158L-201.572,284.024L-201.176,271.866L-222.042,263.307L-238.498,253.469L-248.734,243.942L-266.66,229.841L-274.407,208.526L-279.666,204.711L-296.687,205.666L-302.682,201.382L-304.378,184.578L-325.527,173.329L-338.76,185.69L-352.162,192.988L-349.617,203.543Z" fill="#e8c897" fill-opacity="0.4" stroke="#3d2c1a" stroke-width="0.55" stroke-linejoin="round"/>
    <path d="M440.319,692.135L426.408,686.179L419.282,697.342L406.333,690.983L411.422,683.678L412.101,669.906L399.434,655.662L398.416,639.459L386.484,626.053L374.609,624.933L371.442,630.668L362.224,631.143L357.531,628.235L340.962,638.093L340.622,623.28L344.468,605.769L333.837,605.007L332.932,594.975L326.146,589.817L329.482,583.625L342.884,572.681L344.298,576.648L352.667,577.105L350.292,557.754L358.435,555.282L367.596,568.651L374.665,583.966L394.005,584.109L400.112,598.71L390.047,603.088L385.523,609.066L404.353,618.99L417.416,638.539L427.312,652.999L439.188,664.382L443.146,675.917Z" fill="#e8c897" fill-opacity="0.4" stroke="#3d2c1a" stroke-width="0.55" stroke-linejoin="round"/>
    <path d="M326.146,589.817L317.155,593.701L307.994,600.942L296.91,601.677L289.728,619.663L283.112,622.663L290.69,637.173L300.699,649.168L307.089,659.983L301.377,674.181L295.949,677.185L299.681,685.327L310.142,698.218L311.952,707.243L311.726,714.72L317.833,729.39L309.238,744.336L301.604,760.746L300.077,748.883L304.94,736.638L299.624,727.134L300.925,709.591L294.535,701.229L289.445,681.836L286.618,661.256L279.775,647.668L269.427,655.911L251.614,667.559L242.792,666.095L233.066,662.28L238.495,641.966L235.215,626.501L222.887,607.375L224.81,601.366L215.592,599.219L204.452,585.587L203.434,572.024L208.919,574.594L209.259,562.463L217.006,558.444L215.309,551.221L218.872,545.422L219.494,527.67L231.765,531.598L238.777,517.396L239.569,508.953L248.221,494.332L247.769,484.31L268.07,472.144L279.323,475.342L278.022,464.442L283.508,461.196L282.377,454.447L291.538,453.118L296.797,463.601L303.639,467.832L304.092,481.335L303.47,495.781L288.597,510.304L286.731,530.784L303.3,527.932L307.032,543.716L316.985,547.039L312.404,561.143L324.054,567.506L330.896,570.624L342.375,565.702L342.884,572.681L329.482,583.625Z" fill="#e8c897" fill-opacity="0.4" stroke="#3d2c1a" stroke-width="0.55" stroke-linejoin="round"/>
    <path d="M807.832,184.649L807.832,184.649L807.832,184.649ZM805.627,180.91L807.832,184.649L801.838,183.356L795.052,190.524L790.359,197.725L790.924,212.717L782.837,217.281L780.01,220.956L774.129,227.025L763.667,230.397L756.825,235.906L756.316,244.732L754.506,246.964L760.783,250.255L769.662,259.094L767.4,263.952L760.727,265.274L749.587,266.256L743.479,275.234L736.467,274.528L735.506,276.344L727.872,272.574L725.949,276.311L721.368,277.958L720.803,274.191L716.731,272.371L712.49,269.199L716.788,260.387L720.52,258.039L719.106,254.357L723.121,243.426L722.104,240.119L712.886,237.876L705.478,232.409L718.315,219.207L735.619,208.032L746.42,193.166L753.828,199.75L767.456,200.531L764.968,189.416L789.228,180.298L795.505,168.323Z" fill="#e8c897" fill-opacity="0.4" stroke="#3d2c1a" stroke-width="0.55" stroke-linejoin="round"/>
    <path d="M735.506,276.344L736.467,274.528L743.479,275.234L749.587,266.256L760.727,265.274L767.4,263.952L769.662,259.094L783.233,282.619L787.079,295.387L787.248,317.827L781.311,328.422L767.06,332.089L754.506,340.01L740.369,341.654L738.616,331.246L741.5,316.813L734.601,296.549L746.25,293.261Z" fill="#e8c897" fill-opacity="0.4" stroke="#3d2c1a" stroke-width="0.55" stroke-linejoin="round"/>
    <path d="M131.956,24.968L148.468,20.803L178.439,-0.208L202.36,-11.845L216.045,-4.213L232.387,-3.879L242.905,7.596L258.57,8.506L281.302,14.609L296.571,-2.418L290.181,-17.03L306.467,-43.186L324.054,-32.687L338.304,-29.735L356.796,-23.259L359.793,-4.589L382.073,5.733L396.946,1.207L416.794,-2.042L432.572,1.207L447.953,12.962L457.453,25.335L472.043,25.091L491.835,28.998L506.255,23.051L526.952,19.042L549.968,1.873L559.355,4.489L567.611,12.674L586.329,10.654L578.695,28.917L567.555,52.654L571.626,62.217L580.504,59.288L595.999,62.928L608.1,54.246L620.711,61.742L634.905,77.964L633.208,86.131L620.824,83.57L597.978,86.596L586.951,93.088L575.415,108.069L551.495,116.76L535.83,128.544L519.657,124.039L510.836,122.045L502.579,136.315L507.612,144.743L510.157,151.939L499.187,159.242L487.877,170.756L469.555,178.28L445.974,179.073L420.64,186.443L402.318,197.796L395.362,191.239L376.362,191.274L353.12,178.388L337.625,175.21L316.759,178.172L284.299,173.365L266.995,173.872L257.778,161.107L250.596,141.074L240.926,138.623L221.926,124.867L200.776,121.743L182.115,117.932L176.46,108.221L182.511,81.665L171.653,63.007L149.26,54.206L136.084,41.688Z" fill="#e8c897" fill-opacity="0.4" stroke="#3d2c1a" stroke-width="0.55" stroke-linejoin="round"/>
    <path d="M282.377,454.447L283.508,461.196L278.022,464.442L279.323,475.342L268.07,472.144L247.769,484.31L248.221,494.332L239.569,508.953L238.777,517.396L231.765,531.598L219.494,527.67L218.872,545.422L215.309,551.221L217.006,558.444L209.259,562.463L200.946,535.432L196.648,535.49L194.047,546.404L185.451,537.549L190.315,527.787L197.327,526.797L204.565,512.182L195.517,509.217L180.984,509.452L165.998,507.072L164.641,494.983L157.12,494.096L144.679,486.538L139.138,498.411L150.447,507.631L140.664,514.087L137.158,520.378L146.828,525.019L144.17,535.374L149.599,548.222L152.031,562.205L149.825,568.393L139.138,568.193L119.741,571.681L120.646,584.364L112.277,594.267L89.657,605.515L72.07,625.045L60.251,635.471L44.644,646.25L44.587,653.776L36.783,657.823L22.59,663.69L15.295,664.547L10.545,676.964L13.824,698.081L14.673,711.475L8,726.754L7.943,753.967L-0.2,754.751L-7.325,766.896L-2.575,772.151L-16.882,776.674L-22.141,787.457L-28.474,792.022L-43.347,777.186L-50.585,754.886L-56.636,738.754L-62.121,731.183L-70.49,715.729L-74.392,695.534L-77.107,685.409L-91.414,663.054L-97.917,631.227L-102.61,610.023L-102.554,589.789L-105.608,574.052L-128.453,584.109L-139.537,582.118L-160.008,561.66L-152.487,555.512L-157.124,548.828L-175.559,534.329L-165.097,522.831L-130.489,522.889L-133.656,508.042L-142.478,499.208L-144.231,485.736L-154.523,477.848L-137.219,459.3L-118.953,460.655L-102.554,441.909L-92.714,423.616L-77.446,405.323L-77.672,392.218L-64.327,381.498L-76.994,372.291L-82.422,359.596L-88.021,343.039L-80.273,334.81L-56.466,339.462L-38.936,336.621L-23.781,320.507L-6.929,342.943L-8.512,358.385L-2.236,368.018L-2.744,377.532L-14.054,375.04L-9.643,395.464L5.794,407.089L27.622,419.837L17.67,428.061L11.562,444.915L26.774,451.698L41.59,460.414L62.061,470.378L83.606,472.652L92.654,481.632L104.812,483.299L123.7,487.399L136.762,487.102L138.572,480.143L136.536,468.941L137.724,461.287L147.337,457.553L148.638,471.516L148.977,475.073L163.228,481.751L173.124,479.011L186.356,480.173L199.193,479.667L200.324,468.821L193.934,463.15L206.601,460.926L220.851,447.673L239.004,436.248L252.179,440.663L263.376,433.076L270.728,444.247L265.412,451.759Z" fill="#e8c897" fill-opacity="0.4" stroke="#3d2c1a" stroke-width="0.55" stroke-linejoin="round"/>
    <path d="M209.259,562.463L208.919,574.594L203.434,572.024L204.452,585.587L199.985,576.819L199.08,568.221L196.083,560.052L189.523,550.155L175.046,549.492L176.46,556.49L171.54,565.931L164.867,562.492L162.549,565.587L158.138,563.725L152.031,562.205L149.599,548.222L144.17,535.374L146.828,525.019L137.158,520.378L140.664,514.087L150.447,507.631L139.138,498.411L144.679,486.538L157.12,494.096L164.641,494.983L165.998,507.072L180.984,509.452L195.517,509.217L204.565,512.182L197.327,526.797L190.315,527.787L185.451,537.549L194.047,546.404L196.648,535.49L200.946,535.432Z" fill="#e8c897" fill-opacity="0.4" stroke="#3d2c1a" stroke-width="0.55" stroke-linejoin="round"/>
    <path d="M193.934,463.15L200.324,468.821L199.193,479.667L186.356,480.173L173.124,479.011L163.228,481.751L148.977,475.073L148.638,471.516L159.043,458.337L167.525,453.813L178.722,457.945L187.035,458.367Z" fill="#e8c897" fill-opacity="0.4" stroke="#3d2c1a" stroke-width="0.55" stroke-linejoin="round"/>
    <path d="M137.724,461.287L136.536,468.941L138.572,480.143L136.762,487.102L123.7,487.399L104.812,483.299L92.654,481.632L83.606,472.652L62.061,470.378L41.59,460.414L26.774,451.698L11.562,444.915L17.67,428.061L27.622,419.837L34.126,415.495L46.736,421.098L62.57,432.892L71.448,435.456L76.707,444.095L88.922,447.643L101.645,455.473L119.402,459.571Z" fill="#e8c897" fill-opacity="0.4" stroke="#3d2c1a" stroke-width="0.55" stroke-linejoin="round"/>
    <path d="M-23.781,320.507L-38.936,336.621L-56.466,339.462L-80.273,334.81L-88.021,343.039L-82.422,359.596L-76.994,372.291L-64.327,381.498L-77.672,392.218L-77.446,405.323L-92.714,423.616L-102.554,441.909L-118.953,460.655L-137.219,459.3L-154.523,477.848L-144.231,485.736L-142.478,499.208L-133.656,508.042L-130.489,522.889L-165.097,522.831L-175.559,534.329L-187.038,529.97L-191.732,517.601L-203.89,504.395L-232.843,507.66L-258.347,507.983L-280.458,510.421L-274.52,490.157L-251.9,481.096L-253.201,472.981L-260.722,470.109L-261.118,454.477L-276.16,446.613L-282.494,435.761L-290.241,426.285L-263.945,435.486L-248.225,432.801L-238.838,435.09L-235.671,431.151L-224.7,432.74L-204.286,425.212L-203.72,409.72L-195.012,399.358L-183.306,399.389L-181.553,394.216L-169.565,391.812L-163.74,393.53L-157.633,388.339L-158.481,377.185L-151.808,365.924L-141.799,361.156L-148.019,348.695L-133.034,349.272L-128.736,342.428L-129.415,335.101L-121.554,327.057L-123.364,317.467L-127.096,309.266L-117.879,300.756L-101.027,296.648L-82.988,294.391L-75.014,290.766L-65.853,288.533L-54.261,297.709L-49.624,312.683Z" fill="#e8c897" fill-opacity="0.4" stroke="#3d2c1a" stroke-width="0.55" stroke-linejoin="round"/>
    <path d="M-201.572,284.024L-192.863,284.158L-180.988,288.3L-176.181,290.699L-164.815,284.392L-159.555,288.2L-154.466,279.133L-145.079,279.535L-142.647,276.647L-141.007,268.59L-134.221,261.644L-125.739,266.188L-127.436,272.304L-122.685,273.248L-124.156,289.867L-117.935,296.317L-112.45,292.164L-105.494,290.233L-95.711,281.379L-84.854,282.853L-68.681,282.887L-65.853,288.533L-75.014,290.766L-82.988,294.391L-101.027,296.648L-117.879,300.756L-127.096,309.266L-123.364,317.467L-121.554,327.057L-129.415,335.101L-128.736,342.428L-133.034,349.272L-148.019,348.695L-141.799,361.156L-151.808,365.924L-158.481,377.185L-157.633,388.339L-163.74,393.53L-169.565,391.812L-181.553,394.216L-183.306,399.389L-195.012,399.358L-203.72,409.72L-204.286,425.212L-224.7,432.74L-235.671,431.151L-238.838,435.09L-248.225,432.801L-263.945,435.486L-290.241,426.285L-275.99,409.782L-277.291,397.989L-289.166,394.872L-290.41,383.132L-295.556,368.239L-288.827,357.97L-295.669,355.193L-291.372,341.397L-284.982,317.5L-268.922,324.812L-257.103,322.237L-253.823,313.471L-241.439,310.548L-232.561,304.621L-229.45,288.967L-216.218,285.161L-213.73,278.092L-206.322,283.389Z" fill="#e8c897" fill-opacity="0.4" stroke="#3d2c1a" stroke-width="0.55" stroke-linejoin="round"/>
    <path d="M-180.988,288.3L-172.166,268.218L-175.559,253.264L-187.095,248.473L-183.023,239.499L-169.904,240.464L-162.44,229.181L-157.407,215.913L-136.427,211.098L-139.707,220.711L-137.445,226.433L-130.998,225.911L-136.71,232.236L-153.844,228.834L-155.314,240.602L-138.293,239.016L-118.897,245.626L-89.152,242.565L-85.193,261.236L-80.047,259.231L-70.49,263.782L-71.056,271.562L-68.681,282.887L-84.854,282.853L-95.711,281.379L-105.494,290.233L-112.45,292.164L-117.935,296.317L-124.156,289.867L-122.685,273.248L-127.436,272.304L-125.739,266.188L-134.221,261.644L-141.007,268.59L-142.647,276.647L-145.079,279.535L-154.466,279.133L-159.555,288.2L-164.815,284.392L-176.181,290.699Z" fill="#e8c897" fill-opacity="0.4" stroke="#3d2c1a" stroke-width="0.55" stroke-linejoin="round"/>
    <path d="M-131.79,183.68L-128.284,174.342L-117.935,171.3L-92.092,178.677L-89.661,166.031L-80.726,161.582L-58.332,170.611L-52.677,168.25L-26.608,168.832L-3.31,171.082L4.607,178.749L14.277,181.882L12.071,186.694L-12.697,198.116L-18.296,206.408L-38.427,208.878L-44.365,222.144L-60.99,219.347L-71.848,223.401L-86.89,233.102L-84.684,237.876L-89.152,242.565L-118.897,245.626L-138.293,239.016L-155.314,240.602L-153.844,228.834L-136.71,232.236L-130.998,225.911L-119.01,227.93L-98.935,213.068L-117.539,202.091L-128.736,207.291L-140.329,199.395L-127.096,185.762Z" fill="#e8c897" fill-opacity="0.4" stroke="#3d2c1a" stroke-width="0.55" stroke-linejoin="round"/>
    <path d="M473.174,626.78L460.281,621.654L459.828,607.347L467.576,599.812L484.766,595.117L493.758,595.513L497.264,601.903L490.365,609.235L486.746,618.821ZM14.277,181.882L13.033,169.703L23.777,164.1L9.64,126.144L40.742,117.252L48.828,112.289L60.138,71.47L91.297,79.056L100.062,68.603L100.797,45.101L113.803,42.854L125.792,26.964L131.956,24.968L136.084,41.688L149.26,54.206L171.653,63.007L182.511,81.665L176.46,108.221L182.115,117.932L200.776,121.743L221.926,124.867L240.926,138.623L250.596,141.074L257.778,161.107L266.995,173.872L284.299,173.365L316.759,178.172L337.625,175.21L353.12,178.388L376.362,191.274L395.362,191.239L402.318,197.796L420.64,186.443L445.974,179.073L469.555,178.28L487.877,170.756L499.187,159.242L510.157,151.939L507.612,144.743L502.579,136.315L510.836,122.045L519.657,124.039L535.83,128.544L551.495,116.76L575.415,108.069L586.951,93.088L597.978,86.596L620.824,83.57L633.208,86.131L634.905,77.964L620.711,61.742L608.1,54.246L595.999,62.928L580.504,59.288L571.626,62.217L567.555,52.654L578.695,28.917L586.329,10.654L605.16,19.82L627.327,4.448L627.157,-6.389L641.351,-32.944L650.116,-41.07L649.89,-55.224L641.295,-61.401L654.245,-74.39L673.754,-79.11L694.621,-79.825L718.089,-71.993L731.887,-62.412L741.613,-36.505L747.494,-25.641L752.979,-10.289L758.804,13.786L786.117,21.539L804.722,38.589L811.056,60.753L834.976,60.793L848.548,51.538L874.504,44.539L866.248,65.69L860.197,74.173L854.768,99.24L844.25,121.103L825.136,117.176L811.678,125.017L815.806,143.892L813.544,169.485L805.514,170.066L805.627,180.91L795.505,168.323L789.228,180.298L764.968,189.416L767.456,200.531L753.828,199.75L746.42,193.166L735.619,208.032L718.315,219.207L705.478,232.409L683.537,238.325L672.001,247.856L655.036,253.367L663.405,243.976L660.126,236.045L672.566,222.249L664.254,211.38L650.569,218.717L632.812,233.033L623.142,246.175L607.761,247.17L599.731,256.574L608.044,270.144L620.88,273.416L621.389,282.317L633.83,288.1L651.417,273.955L665.385,281.681L675.507,282.184L678.052,292.53L655.828,298.008L648.476,308.542L633.208,318.253L625.178,331.733L642.086,342.234L648.25,360.838L657.807,377.973L668.495,392.218L668.212,405.881L658.373,410.865L662.105,420.575L671.379,426.223L668.947,440.906L664.932,455.081L656.167,456.679L644.688,475.879L631.964,498.883L617.374,519.589L595.773,535.461L573.945,549.867L556.245,551.827L546.631,559.363L541.203,553.843L532.324,562.291L510.383,570.767L493.758,573.338L488.386,591.093L479.677,592.086L475.549,579.897L479.281,573.395L458.188,567.993L450.78,570.738L434.947,566.332L427.482,559.449L429.97,549.665L415.607,546.548L408.029,540.128L394.684,549.232L379.359,551.193L366.861,551.106L358.435,555.282L350.292,557.754L352.667,577.105L344.298,576.648L342.884,572.681L342.375,565.702L330.896,570.624L324.054,567.506L312.404,561.143L316.985,547.039L307.032,543.716L303.3,527.932L286.731,530.784L288.597,510.304L303.47,495.781L304.092,481.335L303.639,467.832L296.797,463.601L291.538,453.118L282.377,454.447L265.412,451.759L270.728,444.247L263.376,433.076L252.179,440.663L239.004,436.248L220.851,447.673L206.601,460.926L193.934,463.15L187.035,458.367L178.722,457.945L167.525,453.813L159.043,458.337L148.638,471.516L147.337,457.553L137.724,461.287L119.402,459.571L101.645,455.473L88.922,447.643L76.707,444.095L71.448,435.456L62.57,432.892L46.736,421.098L34.126,415.495L27.622,419.837L5.794,407.089L-9.643,395.464L-14.054,375.04L-2.744,377.532L-2.236,368.018L-8.512,358.385L-6.929,342.943L-23.781,320.507L-49.624,312.683L-54.261,297.709L-65.853,288.533L-68.681,282.887L-71.056,271.562L-70.49,263.782L-80.047,259.231L-85.193,261.236L-89.152,242.565L-84.684,237.876L-86.89,233.102L-71.848,223.401L-60.99,219.347L-44.365,222.144L-38.427,208.878L-18.296,206.408L-12.697,198.116L12.071,186.694Z" fill="#d97149" fill-opacity="0.65" stroke="#3d2c1a" stroke-width="1" stroke-linejoin="round"/>
    <path d="M666.403,522.247L656.959,549.722L650.23,563.667L641.973,549.319L640.164,536.65L649.381,519.735L661.992,506.631L669.174,511.8Z" fill="#e8c897" fill-opacity="0.4" stroke="#3d2c1a" stroke-width="0.55" stroke-linejoin="round"/>
    <path d="M982.23,247.616L967.753,267.88L967.98,288.367L962.099,304.027L964.813,313.766L956.613,327.35L936.538,336.362L908.942,337.525L886.549,359.182L876.031,351.931L875.352,337.719L848.039,341.912L829.434,350.874L811.056,351.227L827.002,365.099L816.484,396.68L806.362,404.392L798.728,397.272L802.63,380.586L792.677,375.166L786.287,362.334L801.159,356.534L809.359,344.648L825.193,334.777L836.672,321.682L867.944,315.896L884.739,319.854L901.195,285.161L911.657,294.557L934.729,274.797L943.663,267.068L953.503,242.393L950.845,219.347L957.462,206.196L974.144,202.374L982.739,231.091ZM1025.094,147.183L1036.235,137.916L1039.741,162.349L1016.442,168.25L1002.644,189.416L977.989,174.885L969.393,198.045L951.976,198.365L949.771,177.342L957.575,160.815L974.313,159.608L978.894,129.369L983.587,112.024L1002.022,135.16L1014.067,142.521ZM832.827,359.182L841.536,347.925L850.47,350.105L856.917,342.138L868.453,346.223L870.432,352.731L861.611,364.114L855.164,358.098L847.077,362.461L842.949,373.429L832.714,368.113Z" fill="#e8c897" fill-opacity="0.4" stroke="#3d2c1a" stroke-width="0.55" stroke-linejoin="round"/>
  </g>

  <!-- 区域名标 -->
  <g class="region-labels">
    
    <text x="402.8761101961534" y="230.93423488786868" text-anchor="middle" font-size="22" font-weight="700" letter-spacing="3" fill="#2c1d10" opacity="0.32" font-family="serif">中 国</text>
    <text x="88.716844837174" y="386.5233178948142" text-anchor="middle" font-size="11" font-weight="600" fill="#6b4f33" opacity="0.7" font-family="serif">青藏高原</text>
    <text x="324.3362938564085" y="7.938051933099359" text-anchor="middle" font-size="11" font-weight="600" fill="#6b4f33" opacity="0.7" font-family="serif">蒙古草原</text>
    <text x="795.5751918948774" y="271.363723932988" text-anchor="middle" font-size="10" font-weight="600" fill="#6b4f33" opacity="0.7" font-family="serif">朝鲜半岛</text>
    <text x="921.2388980384687" y="310.7049918836834" text-anchor="middle" font-size="10" font-weight="600" fill="#6b4f33" opacity="0.7" font-family="serif">日本</text>
    <text x="402.8761101961534" y="563.1590428830116" text-anchor="middle" font-size="10" font-weight="600" fill="#6b4f33" opacity="0.7" font-family="serif">越南</text>
  
  </g>

  <!-- 江河长城 -->
  <g class="rivers" stroke-linecap="round" stroke-linejoin="round" fill="none">
    <path d="M 261.5 330.0 L 324.3 310.7 L 402.9 310.7 L 450.0 271.4 L 512.8 310.7 L 560.0 320.4 L 607.1 316.5 L 654.2 295.1 L 685.6 281.3" stroke="#c08560" stroke-width="2.2" opacity="0.85"/>
    <path d="M 183.0 367.9 L 261.5 404.9 L 340.0 423.2 L 387.2 441.2 L 434.3 423.2 L 481.4 414.1 L 544.2 414.1 L 591.4 404.9 L 638.5 395.8 L 669.9 390.2" stroke="#0288d1" stroke-width="2.2" opacity="0.85"/>
    <path d="M 277.2 210.3 L 355.8 241.1 L 402.9 261.4 L 450.0 251.3 L 512.8 220.6 L 575.7 222.7 L 622.8 226.8 L 669.9 230.9 L 701.3 220.6" stroke="#5d4037" stroke-width="2.5" stroke-dasharray="6,3" opacity="0.75"/>
    <path d="M 581.9 233.0 L 594.5 249.3 L 560.0 314.6 L 583.5 360.4 L 594.5 390.2 L 629.1 379.1 L 641.6 417.7" stroke="#1565c0" stroke-width="2" stroke-dasharray="2,2" opacity="0.85"/>
  </g>

  <!-- 河流标注 -->
  <text x="528.5398163397449" y="322" font-size="10" font-style="italic" fill="#c08560" font-weight="600" font-family="serif">黄河</text>
  <text x="544.2477796076939" y="426.08535585165805" font-size="10" font-style="italic" fill="#0288d1" font-weight="600" font-family="serif">长江</text>
  <text x="481.41592653589805" y="212.64373679182472" font-size="10" font-style="italic" fill="#5d4037" font-weight="600" font-family="serif">长 城</text>
  <text x="591.3716694115408" y="352.5065739347858" font-size="9" font-style="italic" fill="#1565c0" font-weight="600" font-family="serif">京杭大运河</text>

  <!-- 丝绸之路（虚线 + 标） -->
  <path d="M 464.8 342.6 L 398.2 271.4 L 277.2 239.1 L 240.5 228.1 L 135.8 199.8 L 10.2 210.3 L -52.7 241.1 L -162.6 241.1 L -194.5 238.1" stroke="#a07cb8" stroke-width="1.6" stroke-dasharray="4,3" fill="none" opacity="0.85"/>
  <text x="135.84073464102062" y="191.82981790752353" font-size="10" font-style="italic" fill="#a07cb8" font-weight="700" font-family="serif">丝 绸 之 路</text>

  <!-- 城市标记 -->
  
    <!-- 长安 — 唐都，特殊样式 -->
    <g class="capital-changan">
      <circle cx="464.7654854718721" cy="342.6055915056104" r="7" fill="#9b2c2c" stroke="#5a1a1a" stroke-width="1" opacity="0.4"/>
      <circle cx="464.7654854718721" cy="342.6055915056104" r="4" fill="#9b2c2c" stroke="#5a1a1a" stroke-width="1.1"/>
      <circle cx="464.7654854718721" cy="342.6055915056104" r="1.5" fill="#fbf5e0"/>
      <text x="464.7654854718721" y="330.6055915056104" text-anchor="middle" font-size="13" font-weight="700" fill="#5a1a1a" font-family="serif">长安 Chang'an</text>
      <text x="464.7654854718721" y="360.6055915056104" text-anchor="middle" font-size="9" fill="#6b4f33" font-style="italic">Tang capital · 100M people</text>
    </g>
    <!-- 其他大都市 -->
    
        <g>
          <circle cx="520.0575161750526" cy="337.27002076822566" r="3" fill="#fbf5e0" stroke="#3d2c1a" stroke-width="0.8"/>
          <circle cx="520.0575161750526" cy="337.27002076822566" r="1.2" fill="#3d2c1a"/>
          <text x="526.0575161750526" y="333.27002076822566" font-size="11" font-weight="600" fill="#2c1d10" font-family="serif">洛阳</text>
          <text x="526.0575161750526" y="343.27002076822566" font-size="8" fill="#6b4f33" font-style="italic">Luoyang</text>
        </g>
        <g>
          <circle cx="548.9601685880787" cy="334.02178576232745" r="3" fill="#fbf5e0" stroke="#3d2c1a" stroke-width="0.8"/>
          <circle cx="548.9601685880787" cy="334.02178576232745" r="1.2" fill="#3d2c1a"/>
          <text x="554.9601685880787" y="330.02178576232745" font-size="11" font-weight="600" fill="#2c1d10" font-family="serif">开封</text>
          <text x="554.9601685880787" y="340.02178576232745" font-size="8" fill="#6b4f33" font-style="italic">Kaifeng (Song)</text>
        </g>
        <g>
          <circle cx="629.5420201526567" cy="379.2840839875645" r="3" fill="#fbf5e0" stroke="#3d2c1a" stroke-width="0.8"/>
          <circle cx="629.5420201526567" cy="379.2840839875645" r="1.2" fill="#3d2c1a"/>
          <text x="635.5420201526567" y="375.2840839875645" font-size="11" font-weight="600" fill="#2c1d10" font-family="serif">扬州</text>
          <text x="635.5420201526567" y="385.2840839875645" font-size="8" fill="#6b4f33" font-style="italic">Yangzhou</text>
        </g>
        <g>
          <circle cx="641.0088333382596" cy="418.2734412853729" r="3" fill="#fbf5e0" stroke="#3d2c1a" stroke-width="0.8"/>
          <circle cx="641.0088333382596" cy="418.2734412853729" r="1.2" fill="#3d2c1a"/>
          <text x="647.0088333382596" y="414.2734412853729" font-size="11" font-weight="600" fill="#2c1d10" font-family="serif">杭州</text>
          <text x="647.0088333382596" y="424.2734412853729" font-size="8" fill="#6b4f33" font-style="italic">Hangzhou</text>
        </g>
        <g>
          <circle cx="532.7809664220911" cy="543.9371190855203" r="3" fill="#fbf5e0" stroke="#3d2c1a" stroke-width="0.8"/>
          <circle cx="532.7809664220911" cy="543.9371190855203" r="1.2" fill="#3d2c1a"/>
          <text x="538.7809664220911" y="539.9371190855203" font-size="11" font-weight="600" fill="#2c1d10" font-family="serif">广州</text>
          <text x="538.7809664220911" y="549.9371190855203" font-size="8" fill="#6b4f33" font-style="italic">Guangzhou</text>
        </g>
        <g>
          <circle cx="617.9181273343745" cy="514.0170722087007" r="3" fill="#fbf5e0" stroke="#3d2c1a" stroke-width="0.8"/>
          <circle cx="617.9181273343745" cy="514.0170722087007" r="1.2" fill="#3d2c1a"/>
          <text x="623.9181273343745" y="510.0170722087007" font-size="11" font-weight="600" fill="#2c1d10" font-family="serif">泉州</text>
          <text x="623.9181273343745" y="520.0170722087007" font-size="8" fill="#6b4f33" font-style="italic">Quanzhou</text>
        </g>
        <g>
          <circle cx="240.4557700055609" cy="228.06054447999088" r="3" fill="#fbf5e0" stroke="#3d2c1a" stroke-width="0.8"/>
          <circle cx="240.4557700055609" cy="228.06054447999088" r="1.2" fill="#3d2c1a"/>
          <text x="246.4557700055609" y="224.06054447999088" font-size="11" font-weight="600" fill="#2c1d10" font-family="serif">敦煌</text>
          <text x="246.4557700055609" y="234.06054447999088" font-size="8" fill="#6b4f33" font-style="italic">Dunhuang</text>
        </g>
        <g>
          <circle cx="-194.49773288394613" cy="238.09279982691646" r="3" fill="#fbf5e0" stroke="#3d2c1a" stroke-width="0.8"/>
          <circle cx="-194.49773288394613" cy="238.09279982691646" r="1.2" fill="#3d2c1a"/>
          <text x="-188.49773288394613" y="234.09279982691646" font-size="11" font-weight="600" fill="#2c1d10" font-family="serif">撒马尔罕</text>
          <text x="-188.49773288394613" y="244.09279982691646" font-size="8" fill="#6b4f33" font-style="italic">Samarkand</text>
        </g>
  

  <!-- 装饰：朱色印章 (右上) -->
  <g transform="translate(820 80)">
    <rect width="48" height="48" fill="#9b2c2c" stroke="#5a1a1a" stroke-width="1" opacity="0.85" rx="3"/>
    <text x="24" y="22" text-anchor="middle" font-size="14" fill="#fbf5e0" font-weight="700" font-family="serif">大唐</text>
    <text x="24" y="38" text-anchor="middle" font-size="14" fill="#fbf5e0" font-weight="700" font-family="serif">盛世</text>
  </g>

  <!-- 罗经 -->
  
  <g transform="translate(75 100)" opacity="0.85">
    <circle r="30" fill="#fbf5e0" stroke="#3d2c1a" stroke-width="0.7"/>
    <circle r="19.5" fill="none" stroke="#3d2c1a" stroke-width="0.4" stroke-dasharray="2,2"/>
    <!-- Cardinal points -->
    <path d="M 0 -28.5 L 4 0 L 0 28.5 L -4 0 Z" fill="#3d2c1a" stroke="#3d2c1a" stroke-width="0.4"/>
    <path d="M -28.5 0 L 0 -3 L 28.5 0 L 0 3 Z" fill="#3d2c1a" opacity="0.35"/>
    <path d="M 0 -28.5 L 3 -2 L 0 0 L -3 -2 Z" fill="#f4ead0" stroke="#3d2c1a" stroke-width="0.3"/>
    <text y="-34" text-anchor="middle" font-family="serif" font-size="11.4" font-weight="600" fill="#3d2c1a">N</text>
  </g>

  <!-- 角花 -->
  
  <g transform="translate(40 40) scale(1 1)" opacity="0.55">
    <path d="M 0 0 Q 5 5 12 4 M 0 0 Q 5 5 4 12"
          fill="none" stroke="#3d2c1a" stroke-width="0.6" stroke-linecap="round"/>
    <circle cx="10" cy="10" r="1.5" fill="#3d2c1a" opacity="0.7"/>
    <circle cx="0" cy="0" r="2" fill="#e8dcb6" stroke="#3d2c1a" stroke-width="0.5"/>
  </g>
  
  <g transform="translate(860 40) scale(-1 1)" opacity="0.55">
    <path d="M 0 0 Q 5 5 12 4 M 0 0 Q 5 5 4 12"
          fill="none" stroke="#3d2c1a" stroke-width="0.6" stroke-linecap="round"/>
    <circle cx="10" cy="10" r="1.5" fill="#3d2c1a" opacity="0.7"/>
    <circle cx="0" cy="0" r="2" fill="#e8dcb6" stroke="#3d2c1a" stroke-width="0.5"/>
  </g>
  
  <g transform="translate(40 660) scale(1 -1)" opacity="0.55">
    <path d="M 0 0 Q 5 5 12 4 M 0 0 Q 5 5 4 12"
          fill="none" stroke="#3d2c1a" stroke-width="0.6" stroke-linecap="round"/>
    <circle cx="10" cy="10" r="1.5" fill="#3d2c1a" opacity="0.7"/>
    <circle cx="0" cy="0" r="2" fill="#e8dcb6" stroke="#3d2c1a" stroke-width="0.5"/>
  </g>
  
  <g transform="translate(860 660) scale(-1 -1)" opacity="0.55">
    <path d="M 0 0 Q 5 5 12 4 M 0 0 Q 5 5 4 12"
          fill="none" stroke="#3d2c1a" stroke-width="0.6" stroke-linecap="round"/>
    <circle cx="10" cy="10" r="1.5" fill="#3d2c1a" opacity="0.7"/>
    <circle cx="0" cy="0" r="2" fill="#e8dcb6" stroke="#3d2c1a" stroke-width="0.5"/>
  </g>

  <!-- 图例 -->
  
    <g transform="translate(700 520)" font-size="9" fill="#2c1d10" font-family="serif">
      <rect width="180" height="160" fill="#fbf5e0" stroke="#3d2c1a" stroke-width="0.6" opacity="0.95"/>
      <text x="90" y="14" text-anchor="middle" font-size="10" font-weight="700" letter-spacing="1.5">唐宋盛世 · 618-1279</text>
      <line x1="10" y1="32" x2="34" y2="32" stroke="#0288d1" stroke-width="2"/>
      <text x="38" y="35">长江 / 黄河</text>
      <line x1="10" y1="50" x2="34" y2="50" stroke="#5d4037" stroke-width="2.5" stroke-dasharray="3,2"/>
      <text x="38" y="53">长城</text>
      <line x1="10" y1="68" x2="34" y2="68" stroke="#1565c0" stroke-width="2"/>
      <text x="38" y="71">京杭大运河</text>
      <line x1="10" y1="86" x2="34" y2="86" stroke="#a07cb8" stroke-width="1.6" stroke-dasharray="4,3"/>
      <text x="38" y="89">陆上丝绸之路</text>
      <circle cx="22" cy="106" r="3" fill="#9b2c2c" stroke="#5a1a1a" stroke-width="0.8"/>
      <text x="38" y="109">唐都长安</text>
      <circle cx="22" cy="124" r="2" fill="#fbf5e0" stroke="#3d2c1a" stroke-width="0.6"/>
      <text x="38" y="127">其他主要都市</text>
      <text x="90" y="148" text-anchor="middle" font-size="9" font-style="italic" fill="#6b4f33">同时代欧洲：黑暗时代</text>
    </g>
  

  <!-- 标题 -->
  <text x="450" y="44" text-anchor="middle" font-size="22" font-weight="700" letter-spacing="6" fill="#2c1d10" font-family="serif">唐 宋 盛 世</text>
  <text x="450" y="62" text-anchor="middle" font-size="11" fill="#6b4f33" font-style="italic">Tang &amp; Song China · 618-1279 · 世界文明之巅</text>

  <text x="450" y="678" text-anchor="middle" font-size="9" font-style="italic" fill="#6b4f33" opacity="0.7">Know U. Learning · 现代海岸线 · 历史路径示意</text>
</svg>